<svg width="1440" height="740" xmlns="http://www.w3.org/2000/svg"><defs><linearGradient x1="62.274%" y1="17.239%" x2="50%" y2="102.643%" id="a"><stop stop-color="#FFF" offset="0%"/><stop stop-color="#FFF" stop-opacity="0" offset="100%"/></linearGradient></defs><g transform="translate(-126 -45)" fill="none" fill-rule="evenodd"><circle fill="url(#a)" opacity=".425" cx="188" cy="550" r="188"/><circle fill="url(#a)" opacity=".425" cx="1372.5" cy="193.5" r="193.5"/><g fill="#FFF"><path d="M1376.5 262a3.5 3.5 0 1 1 0-7 3.5 3.5 0 0 1 0 7Zm69 0a3.5 3.5 0 1 1 0-7 3.5 3.5 0 0 1 0 7Zm-52 0a3.5 3.5 0 1 1 0-7 3.5 3.5 0 0 1 0 7Zm70 0a3.5 3.5 0 1 1 0-7 3.5 3.5 0 0 1 0 7Zm-53 0a3.5 3.5 0 1 1 0-7 3.5 3.5 0 0 1 0 7Zm70 0a3.5 3.5 0 1 1 0-7 3.5 3.5 0 0 1 0 7Zm-52 0a3.5 3.5 0 1 1 0-7 3.5 3.5 0 0 1 0 7Zm69 0a3.5 3.5 0 1 1 0-7 3.5 3.5 0 0 1 0 7ZM1376.5 338a3.5 3.5 0 1 1 0-7 3.5 3.5 0 0 1 0 7Zm69 0a3.5 3.5 0 1 1 0-7 3.5 3.5 0 0 1 0 7Zm-52 0a3.5 3.5 0 1 1 0-7 3.5 3.5 0 0 1 0 7Zm70 0a3.5 3.5 0 1 1 0-7 3.5 3.5 0 0 1 0 7Zm-53 0a3.5 3.5 0 1 1 0-7 3.5 3.5 0 0 1 0 7Zm70 0a3.5 3.5 0 1 1 0-7 3.5 3.5 0 0 1 0 7Zm-52 0a3.5 3.5 0 1 1 0-7 3.5 3.5 0 0 1 0 7Zm69 0a3.5 3.5 0 1 1 0-7 3.5 3.5 0 0 1 0 7ZM1376.5 300a3.5 3.5 0 1 1 0-7 3.5 3.5 0 0 1 0 7Zm69 0a3.5 3.5 0 1 1 0-7 3.5 3.5 0 0 1 0 7Zm-52 0a3.5 3.5 0 1 1 0-7 3.5 3.5 0 0 1 0 7Zm70 0a3.5 3.5 0 1 1 0-7 3.5 3.5 0 0 1 0 7Zm-53 0a3.5 3.5 0 1 1 0-7 3.5 3.5 0 0 1 0 7Zm70 0a3.5 3.5 0 1 1 0-7 3.5 3.5 0 0 1 0 7Zm-52 0a3.5 3.5 0 1 1 0-7 3.5 3.5 0 0 1 0 7Zm69 0a3.5 3.5 0 1 1 0-7 3.5 3.5 0 0 1 0 7ZM1376.5 376a3.5 3.5 0 1 1 0-7 3.5 3.5 0 0 1 0 7Zm69 0a3.5 3.5 0 1 1 0-7 3.5 3.5 0 0 1 0 7Zm-52 0a3.5 3.5 0 1 1 0-7 3.5 3.5 0 0 1 0 7Zm70 0a3.5 3.5 0 1 1 0-7 3.5 3.5 0 0 1 0 7Zm-53 0a3.5 3.5 0 1 1 0-7 3.5 3.5 0 0 1 0 7Zm70 0a3.5 3.5 0 1 1 0-7 3.5 3.5 0 0 1 0 7Zm-52 0a3.5 3.5 0 1 1 0-7 3.5 3.5 0 0 1 0 7Zm69 0a3.5 3.5 0 1 1 0-7 3.5 3.5 0 0 1 0 7ZM1376.5 281a3.5 3.5 0 1 1 0-7 3.5 3.5 0 0 1 0 7Zm69 0a3.5 3.5 0 1 1 0-7 3.5 3.5 0 0 1 0 7Zm-52 0a3.5 3.5 0 1 1 0-7 3.5 3.5 0 0 1 0 7Zm70 0a3.5 3.5 0 1 1 0-7 3.5 3.5 0 0 1 0 7Zm-53 0a3.5 3.5 0 1 1 0-7 3.5 3.5 0 0 1 0 7Zm70 0a3.5 3.5 0 1 1 0-7 3.5 3.5 0 0 1 0 7Zm-52 0a3.5 3.5 0 1 1 0-7 3.5 3.5 0 0 1 0 7Zm69 0a3.5 3.5 0 1 1 0-7 3.5 3.5 0 0 1 0 7ZM1376.5 357a3.5 3.5 0 1 1 0-7 3.5 3.5 0 0 1 0 7Zm69 0a3.5 3.5 0 1 1 0-7 3.5 3.5 0 0 1 0 7Zm-52 0a3.5 3.5 0 1 1 0-7 3.5 3.5 0 0 1 0 7Zm70 0a3.5 3.5 0 1 1 0-7 3.5 3.5 0 0 1 0 7Zm-53 0a3.5 3.5 0 1 1 0-7 3.5 3.5 0 0 1 0 7Zm70 0a3.5 3.5 0 1 1 0-7 3.5 3.5 0 0 1 0 7Zm-52 0a3.5 3.5 0 1 1 0-7 3.5 3.5 0 0 1 0 7Zm69 0a3.5 3.5 0 1 1 0-7 3.5 3.5 0 0 1 0 7ZM1376.5 319a3.5 3.5 0 1 1 0-7 3.5 3.5 0 0 1 0 7Zm69 0a3.5 3.5 0 1 1 0-7 3.5 3.5 0 0 1 0 7Zm-52 0a3.5 3.5 0 1 1 0-7 3.5 3.5 0 0 1 0 7Zm70 0a3.5 3.5 0 1 1 0-7 3.5 3.5 0 0 1 0 7Zm-53 0a3.5 3.5 0 1 1 0-7 3.5 3.5 0 0 1 0 7Zm70 0a3.5 3.5 0 1 1 0-7 3.5 3.5 0 0 1 0 7Zm-52 0a3.5 3.5 0 1 1 0-7 3.5 3.5 0 0 1 0 7Zm69 0a3.5 3.5 0 1 1 0-7 3.5 3.5 0 0 1 0 7ZM1376.5 395a3.5 3.5 0 1 1 0-7 3.5 3.5 0 0 1 0 7Zm69 0a3.5 3.5 0 1 1 0-7 3.5 3.5 0 0 1 0 7Zm-52 0a3.5 3.5 0 1 1 0-7 3.5 3.5 0 0 1 0 7Zm70 0a3.5 3.5 0 1 1 0-7 3.5 3.5 0 0 1 0 7Zm-53 0a3.5 3.5 0 1 1 0-7 3.5 3.5 0 0 1 0 7Zm70 0a3.5 3.5 0 1 1 0-7 3.5 3.5 0 0 1 0 7Zm-52 0a3.5 3.5 0 1 1 0-7 3.5 3.5 0 0 1 0 7Zm69 0a3.5 3.5 0 1 1 0-7 3.5 3.5 0 0 1 0 7Z"/></g><g fill="#BDC8D6" opacity=".159"><path d="M366.5 587.012a4.506 4.506 0 0 1 4.5-4.512c2.485 0 4.5 2.02 4.5 4.512a4.506 4.506 0 0 1-4.5 4.511c-2.485 0-4.5-2.02-4.5-4.511Zm0 88.945a4.506 4.506 0 0 1 4.5-4.512c2.485 0 4.5 2.02 4.5 4.512a4.506 4.506 0 0 1-4.5 4.512c-2.485 0-4.5-2.02-4.5-4.512Zm0-67.031a4.506 4.506 0 0 1 4.5-4.512c2.485 0 4.5 2.02 4.5 4.512a4.506 4.506 0 0 1-4.5 4.511c-2.485 0-4.5-2.02-4.5-4.511Zm0 90.234a4.506 4.506 0 0 1 4.5-4.512c2.485 0 4.5 2.02 4.5 4.512a4.506 4.506 0 0 1-4.5 4.512c-2.485 0-4.5-2.02-4.5-4.512Zm0-68.32a4.506 4.506 0 0 1 4.5-4.512c2.485 0 4.5 2.02 4.5 4.512a4.506 4.506 0 0 1-4.5 4.512c-2.485 0-4.5-2.02-4.5-4.512Zm0 90.234a4.506 4.506 0 0 1 4.5-4.511c2.485 0 4.5 2.02 4.5 4.511a4.506 4.506 0 0 1-4.5 4.512c-2.485 0-4.5-2.02-4.5-4.512Zm0-67.031a4.506 4.506 0 0 1 4.5-4.512c2.485 0 4.5 2.02 4.5 4.512a4.506 4.506 0 0 1-4.5 4.512c-2.485 0-4.5-2.02-4.5-4.512Zm0 88.945a4.506 4.506 0 0 1 4.5-4.511c2.485 0 4.5 2.02 4.5 4.511a4.506 4.506 0 0 1-4.5 4.512c-2.485 0-4.5-2.02-4.5-4.512ZM268.5 587.012a4.506 4.506 0 0 1 4.5-4.512c2.485 0 4.5 2.02 4.5 4.512a4.506 4.506 0 0 1-4.5 4.511c-2.485 0-4.5-2.02-4.5-4.511Zm0 88.945a4.506 4.506 0 0 1 4.5-4.512c2.485 0 4.5 2.02 4.5 4.512a4.506 4.506 0 0 1-4.5 4.512c-2.485 0-4.5-2.02-4.5-4.512Zm0-67.031a4.506 4.506 0 0 1 4.5-4.512c2.485 0 4.5 2.02 4.5 4.512a4.506 4.506 0 0 1-4.5 4.511c-2.485 0-4.5-2.02-4.5-4.511Zm0 90.234a4.506 4.506 0 0 1 4.5-4.512c2.485 0 4.5 2.02 4.5 4.512a4.506 4.506 0 0 1-4.5 4.512c-2.485 0-4.5-2.02-4.5-4.512Zm0-68.32a4.506 4.506 0 0 1 4.5-4.512c2.485 0 4.5 2.02 4.5 4.512a4.506 4.506 0 0 1-4.5 4.512c-2.485 0-4.5-2.02-4.5-4.512Zm0 90.234a4.506 4.506 0 0 1 4.5-4.511c2.485 0 4.5 2.02 4.5 4.511a4.506 4.506 0 0 1-4.5 4.512c-2.485 0-4.5-2.02-4.5-4.512Zm0-67.031a4.506 4.506 0 0 1 4.5-4.512c2.485 0 4.5 2.02 4.5 4.512a4.506 4.506 0 0 1-4.5 4.512c-2.485 0-4.5-2.02-4.5-4.512Zm0 88.945a4.506 4.506 0 0 1 4.5-4.511c2.485 0 4.5 2.02 4.5 4.511a4.506 4.506 0 0 1-4.5 4.512c-2.485 0-4.5-2.02-4.5-4.512ZM318.5 587.012a4.506 4.506 0 0 1 4.5-4.512c2.485 0 4.5 2.02 4.5 4.512a4.506 4.506 0 0 1-4.5 4.511c-2.485 0-4.5-2.02-4.5-4.511Zm0 88.945a4.506 4.506 0 0 1 4.5-4.512c2.485 0 4.5 2.02 4.5 4.512a4.506 4.506 0 0 1-4.5 4.512c-2.485 0-4.5-2.02-4.5-4.512Zm0-67.031a4.506 4.506 0 0 1 4.5-4.512c2.485 0 4.5 2.02 4.5 4.512a4.506 4.506 0 0 1-4.5 4.511c-2.485 0-4.5-2.02-4.5-4.511Zm0 90.234a4.506 4.506 0 0 1 4.5-4.512c2.485 0 4.5 2.02 4.5 4.512a4.506 4.506 0 0 1-4.5 4.512c-2.485 0-4.5-2.02-4.5-4.512Zm0-68.32a4.506 4.506 0 0 1 4.5-4.512c2.485 0 4.5 2.02 4.5 4.512a4.506 4.506 0 0 1-4.5 4.512c-2.485 0-4.5-2.02-4.5-4.512Zm0 90.234a4.506 4.506 0 0 1 4.5-4.511c2.485 0 4.5 2.02 4.5 4.511a4.506 4.506 0 0 1-4.5 4.512c-2.485 0-4.5-2.02-4.5-4.512Zm0-67.031a4.506 4.506 0 0 1 4.5-4.512c2.485 0 4.5 2.02 4.5 4.512a4.506 4.506 0 0 1-4.5 4.512c-2.485 0-4.5-2.02-4.5-4.512Zm0 88.945a4.506 4.506 0 0 1 4.5-4.511c2.485 0 4.5 2.02 4.5 4.511a4.506 4.506 0 0 1-4.5 4.512c-2.485 0-4.5-2.02-4.5-4.512ZM220.5 567.012a4.506 4.506 0 0 1 4.5-4.512c2.485 0 4.5 2.02 4.5 4.512a4.506 4.506 0 0 1-4.5 4.511c-2.485 0-4.5-2.02-4.5-4.511Zm0 88.945a4.506 4.506 0 0 1 4.5-4.512c2.485 0 4.5 2.02 4.5 4.512a4.506 4.506 0 0 1-4.5 4.512c-2.485 0-4.5-2.02-4.5-4.512Zm0-67.031a4.506 4.506 0 0 1 4.5-4.512c2.485 0 4.5 2.02 4.5 4.512a4.506 4.506 0 0 1-4.5 4.511c-2.485 0-4.5-2.02-4.5-4.511Zm0 90.234a4.506 4.506 0 0 1 4.5-4.512c2.485 0 4.5 2.02 4.5 4.512a4.506 4.506 0 0 1-4.5 4.512c-2.485 0-4.5-2.02-4.5-4.512Zm0-68.32a4.506 4.506 0 0 1 4.5-4.512c2.485 0 4.5 2.02 4.5 4.512a4.506 4.506 0 0 1-4.5 4.512c-2.485 0-4.5-2.02-4.5-4.512Zm0 90.234a4.506 4.506 0 0 1 4.5-4.511c2.485 0 4.5 2.02 4.5 4.511a4.506 4.506 0 0 1-4.5 4.512c-2.485 0-4.5-2.02-4.5-4.512Zm0-67.031a4.506 4.506 0 0 1 4.5-4.512c2.485 0 4.5 2.02 4.5 4.512a4.506 4.506 0 0 1-4.5 4.512c-2.485 0-4.5-2.02-4.5-4.512Zm0 88.945a4.506 4.506 0 0 1 4.5-4.511c2.485 0 4.5 2.02 4.5 4.511a4.506 4.506 0 0 1-4.5 4.512c-2.485 0-4.5-2.02-4.5-4.512ZM342.5 587.012a4.506 4.506 0 0 1 4.5-4.512c2.485 0 4.5 2.02 4.5 4.512a4.506 4.506 0 0 1-4.5 4.511c-2.485 0-4.5-2.02-4.5-4.511Zm0 88.945a4.506 4.506 0 0 1 4.5-4.512c2.485 0 4.5 2.02 4.5 4.512a4.506 4.506 0 0 1-4.5 4.512c-2.485 0-4.5-2.02-4.5-4.512Zm0-67.031a4.506 4.506 0 0 1 4.5-4.512c2.485 0 4.5 2.02 4.5 4.512a4.506 4.506 0 0 1-4.5 4.511c-2.485 0-4.5-2.02-4.5-4.511Zm0 90.234a4.506 4.506 0 0 1 4.5-4.512c2.485 0 4.5 2.02 4.5 4.512a4.506 4.506 0 0 1-4.5 4.512c-2.485 0-4.5-2.02-4.5-4.512Zm0-68.32a4.506 4.506 0 0 1 4.5-4.512c2.485 0 4.5 2.02 4.5 4.512a4.506 4.506 0 0 1-4.5 4.512c-2.485 0-4.5-2.02-4.5-4.512Zm0 90.234a4.506 4.506 0 0 1 4.5-4.511c2.485 0 4.5 2.02 4.5 4.511a4.506 4.506 0 0 1-4.5 4.512c-2.485 0-4.5-2.02-4.5-4.512Zm0-67.031a4.506 4.506 0 0 1 4.5-4.512c2.485 0 4.5 2.02 4.5 4.512a4.506 4.506 0 0 1-4.5 4.512c-2.485 0-4.5-2.02-4.5-4.512Zm0 88.945a4.506 4.506 0 0 1 4.5-4.511c2.485 0 4.5 2.02 4.5 4.511a4.506 4.506 0 0 1-4.5 4.512c-2.485 0-4.5-2.02-4.5-4.512ZM244.5 587.012a4.506 4.506 0 0 1 4.5-4.512c2.485 0 4.5 2.02 4.5 4.512a4.506 4.506 0 0 1-4.5 4.511c-2.485 0-4.5-2.02-4.5-4.511Zm0 88.945a4.506 4.506 0 0 1 4.5-4.512c2.485 0 4.5 2.02 4.5 4.512a4.506 4.506 0 0 1-4.5 4.512c-2.485 0-4.5-2.02-4.5-4.512Zm0-67.031a4.506 4.506 0 0 1 4.5-4.512c2.485 0 4.5 2.02 4.5 4.512a4.506 4.506 0 0 1-4.5 4.511c-2.485 0-4.5-2.02-4.5-4.511Zm0 90.234a4.506 4.506 0 0 1 4.5-4.512c2.485 0 4.5 2.02 4.5 4.512a4.506 4.506 0 0 1-4.5 4.512c-2.485 0-4.5-2.02-4.5-4.512Zm0-68.32a4.506 4.506 0 0 1 4.5-4.512c2.485 0 4.5 2.02 4.5 4.512a4.506 4.506 0 0 1-4.5 4.512c-2.485 0-4.5-2.02-4.5-4.512Zm0 90.234a4.506 4.506 0 0 1 4.5-4.511c2.485 0 4.5 2.02 4.5 4.511a4.506 4.506 0 0 1-4.5 4.512c-2.485 0-4.5-2.02-4.5-4.512Zm0-67.031a4.506 4.506 0 0 1 4.5-4.512c2.485 0 4.5 2.02 4.5 4.512a4.506 4.506 0 0 1-4.5 4.512c-2.485 0-4.5-2.02-4.5-4.512Zm0 88.945a4.506 4.506 0 0 1 4.5-4.511c2.485 0 4.5 2.02 4.5 4.511a4.506 4.506 0 0 1-4.5 4.512c-2.485 0-4.5-2.02-4.5-4.512ZM294.5 587.012a4.506 4.506 0 0 1 4.5-4.512c2.485 0 4.5 2.02 4.5 4.512a4.506 4.506 0 0 1-4.5 4.511c-2.485 0-4.5-2.02-4.5-4.511Zm0 88.945a4.506 4.506 0 0 1 4.5-4.512c2.485 0 4.5 2.02 4.5 4.512a4.506 4.506 0 0 1-4.5 4.512c-2.485 0-4.5-2.02-4.5-4.512Zm0-67.031a4.506 4.506 0 0 1 4.5-4.512c2.485 0 4.5 2.02 4.5 4.512a4.506 4.506 0 0 1-4.5 4.511c-2.485 0-4.5-2.02-4.5-4.511Zm0 90.234a4.506 4.506 0 0 1 4.5-4.512c2.485 0 4.5 2.02 4.5 4.512a4.506 4.506 0 0 1-4.5 4.512c-2.485 0-4.5-2.02-4.5-4.512Zm0-68.32a4.506 4.506 0 0 1 4.5-4.512c2.485 0 4.5 2.02 4.5 4.512a4.506 4.506 0 0 1-4.5 4.512c-2.485 0-4.5-2.02-4.5-4.512Zm0 90.234a4.506 4.506 0 0 1 4.5-4.511c2.485 0 4.5 2.02 4.5 4.511a4.506 4.506 0 0 1-4.5 4.512c-2.485 0-4.5-2.02-4.5-4.512Zm0-67.031a4.506 4.506 0 0 1 4.5-4.512c2.485 0 4.5 2.02 4.5 4.512a4.506 4.506 0 0 1-4.5 4.512c-2.485 0-4.5-2.02-4.5-4.512Zm0 88.945a4.506 4.506 0 0 1 4.5-4.511c2.485 0 4.5 2.02 4.5 4.511a4.506 4.506 0 0 1-4.5 4.512c-2.485 0-4.5-2.02-4.5-4.512ZM196.5 567.012a4.506 4.506 0 0 1 4.5-4.512c2.485 0 4.5 2.02 4.5 4.512a4.506 4.506 0 0 1-4.5 4.511c-2.485 0-4.5-2.02-4.5-4.511Zm0 88.945a4.506 4.506 0 0 1 4.5-4.512c2.485 0 4.5 2.02 4.5 4.512a4.506 4.506 0 0 1-4.5 4.512c-2.485 0-4.5-2.02-4.5-4.512Zm0-67.031a4.506 4.506 0 0 1 4.5-4.512c2.485 0 4.5 2.02 4.5 4.512a4.506 4.506 0 0 1-4.5 4.511c-2.485 0-4.5-2.02-4.5-4.511Zm0 90.234a4.506 4.506 0 0 1 4.5-4.512c2.485 0 4.5 2.02 4.5 4.512a4.506 4.506 0 0 1-4.5 4.512c-2.485 0-4.5-2.02-4.5-4.512Zm0-68.32a4.506 4.506 0 0 1 4.5-4.512c2.485 0 4.5 2.02 4.5 4.512a4.506 4.506 0 0 1-4.5 4.512c-2.485 0-4.5-2.02-4.5-4.512Zm0 90.234a4.506 4.506 0 0 1 4.5-4.511c2.485 0 4.5 2.02 4.5 4.511a4.506 4.506 0 0 1-4.5 4.512c-2.485 0-4.5-2.02-4.5-4.512Zm0-67.031a4.506 4.506 0 0 1 4.5-4.512c2.485 0 4.5 2.02 4.5 4.512a4.506 4.506 0 0 1-4.5 4.512c-2.485 0-4.5-2.02-4.5-4.512Zm0 88.945a4.506 4.506 0 0 1 4.5-4.511c2.485 0 4.5 2.02 4.5 4.511a4.506 4.506 0 0 1-4.5 4.512c-2.485 0-4.5-2.02-4.5-4.512Z"/></g></g></svg>